<svg xmlns="http://www.w3.org/2000/svg" viewBox="0 0 432.74 439.2">
  <defs>
    <style>
      .cls-1 {
        fill: #53aadd;
      }
    </style>
  </defs>
  <title>Asset 2</title>
  <g id="Layer_2" data-name="Layer 2">
    <g id="Layer_1-2" data-name="Layer 1">
      <path class="cls-1" d="M413.56,122.88l-37.26,1A186.29,186.29,0,0,0,356.79,97.1L369.28,62A220,220,0,0,0,319,25.45L289.53,48.16A185.44,185.44,0,0,0,258,37.91L247.43,2.2a220.36,220.36,0,0,0-62.12,0L174.79,37.91a185.16,185.16,0,0,0-31.57,10.25L113.7,25.45A219.93,219.93,0,0,0,63.47,62L76,97.1a186.22,186.22,0,0,0-19.5,26.81l-37.27-1A217.78,217.78,0,0,0,0,182L30.76,203c-.48,5.46-.74,11-.74,16.57s.26,11.11.74,16.57L0,257.25a217.89,217.89,0,0,0,19.18,59.07l37.27-1A187.34,187.34,0,0,0,76,342.1L63.47,377.2a220.53,220.53,0,0,0,50.23,36.55L143.22,391a184.31,184.31,0,0,0,31.57,10.26L185.31,437a220.36,220.36,0,0,0,62.12,0L258,401.29A184.59,184.59,0,0,0,289.53,391L319,413.75a220.59,220.59,0,0,0,50.24-36.55l-12.49-35.1a187.4,187.4,0,0,0,19.51-26.81l37.26,1a217.89,217.89,0,0,0,19.18-59.07L402,236.17c.48-5.46.74-11,.74-16.57s-.26-11.11-.74-16.57L432.74,182A217.78,217.78,0,0,0,413.56,122.88Z"/>
    </g>
  </g>
</svg>
