<svg xmlns="http://www.w3.org/2000/svg" xmlns:xlink="http://www.w3.org/1999/xlink" viewBox="0 0 372.15 257.86">
  <defs>
    <style>
      .cls-1 {
        fill: #fff;
      }

      .cls-2 {
        fill: url(#New_Gradient_Swatch_2);
      }

      .cls-3 {
        fill: url(#linear-gradient);
      }
    </style>
    <linearGradient id="New_Gradient_Swatch_2" data-name="New Gradient Swatch 2" x1="94.96" y1="220.04" x2="306.78" y2="8.22" gradientUnits="userSpaceOnUse">
      <stop offset="0"/>
      <stop offset="1" stop-color="#1a1a1a"/>
    </linearGradient>
    <linearGradient id="linear-gradient" x1="102.11" y1="263.79" x2="286.64" y2="79.26" gradientUnits="userSpaceOnUse">
      <stop offset="0" stop-color="#320000"/>
      <stop offset="1" stop-color="red"/>
    </linearGradient>
  </defs>
  <title>Vector</title>
  <g id="Layer_8" data-name="Layer 8">
    <g>
      <path class="cls-1" d="M324.91,176A96.64,96.64,0,0,0,269.76,0H0L79,136.77,46.32,193.33l37.26,64.53H372.15Z"/>
      <path class="cls-2" d="M314.15,173.39l44.14,76.47H302.45L237.17,136.77h29.17a38.27,38.27,0,0,0,7.1,0A39.85,39.85,0,0,0,290,131.53,40.29,40.29,0,0,0,269.8,56.35H97.61L144,136.77l28,48.51H60.2l28-48.51L13.86,8H269.75a88.64,88.64,0,0,1,44.4,165.39Z"/>
      <path class="cls-3" d="M209.36,120.81l9.22,16,65.28,113.09H88.19l-28-48.48H200l-37.29-64.61-37.14-64.3h144.2a24.17,24.17,0,1,1,0,48.34Z"/>
    </g>
  </g>
</svg>
